<?xml version="1.0" encoding="UTF-8" standalone="no"?><svg xmlns="http://www.w3.org/2000/svg" xmlns:xlink="http://www.w3.org/1999/xlink" contentScriptType="application/ecmascript" contentStyleType="text/css" height="1479px" preserveAspectRatio="none" style="width:629px;height:1479px;" version="1.1" viewBox="0 0 629 1479" width="629px" zoomAndPan="magnify"><defs><filter height="300%" id="fpa2mkts8usxi" width="300%" x="-1" y="-1"><feGaussianBlur result="blurOut" stdDeviation="2.0"/><feColorMatrix in="blurOut" result="blurOut2" type="matrix" values="0 0 0 0 0 0 0 0 0 0 0 0 0 0 0 0 0 0 .4 0"/><feOffset dx="4.0" dy="4.0" in="blurOut2" result="blurOut3"/><feBlend in="SourceGraphic" in2="blurOut3" mode="normal"/></filter></defs><g><line style="stroke: #A80036; stroke-width: 1.0;" x1="151" x2="151" y1="38.4883" y2="987.4941"/><line style="stroke: #A80036; stroke-width: 1.0; stroke-dasharray: 1.0,4.0;" x1="151" x2="151" y1="987.4941" y2="1028.4492"/><line style="stroke: #A80036; stroke-width: 1.0;" x1="151" x2="151" y1="1028.4492" y2="1329.2441"/><line style="stroke: #A80036; stroke-width: 1.0; stroke-dasharray: 1.0,4.0;" x1="151" x2="151" y1="1329.2441" y2="1370.1992"/><line style="stroke: #A80036; stroke-width: 1.0;" x1="151" x2="151" y1="1370.1992" y2="1438.8203"/><line style="stroke: #A80036; stroke-width: 1.0;" x1="306" x2="306" y1="38.4883" y2="987.4941"/><line style="stroke: #A80036; stroke-width: 1.0; stroke-dasharray: 1.0,4.0;" x1="306" x2="306" y1="987.4941" y2="1028.4492"/><line style="stroke: #A80036; stroke-width: 1.0;" x1="306" x2="306" y1="1028.4492" y2="1329.2441"/><line style="stroke: #A80036; stroke-width: 1.0; stroke-dasharray: 1.0,4.0;" x1="306" x2="306" y1="1329.2441" y2="1370.1992"/><line style="stroke: #A80036; stroke-width: 1.0;" x1="306" x2="306" y1="1370.1992" y2="1438.8203"/><line style="stroke: #A80036; stroke-width: 1.0;" x1="461" x2="461" y1="38.4883" y2="987.4941"/><line style="stroke: #A80036; stroke-width: 1.0; stroke-dasharray: 1.0,4.0;" x1="461" x2="461" y1="987.4941" y2="1028.4492"/><line style="stroke: #A80036; stroke-width: 1.0;" x1="461" x2="461" y1="1028.4492" y2="1329.2441"/><line style="stroke: #A80036; stroke-width: 1.0; stroke-dasharray: 1.0,4.0;" x1="461" x2="461" y1="1329.2441" y2="1370.1992"/><line style="stroke: #A80036; stroke-width: 1.0;" x1="461" x2="461" y1="1370.1992" y2="1438.8203"/><line style="stroke: #A80036; stroke-width: 1.0;" x1="578" x2="578" y1="38.4883" y2="987.4941"/><line style="stroke: #A80036; stroke-width: 1.0; stroke-dasharray: 1.0,4.0;" x1="578" x2="578" y1="987.4941" y2="1028.4492"/><line style="stroke: #A80036; stroke-width: 1.0;" x1="578" x2="578" y1="1028.4492" y2="1329.2441"/><line style="stroke: #A80036; stroke-width: 1.0; stroke-dasharray: 1.0,4.0;" x1="578" x2="578" y1="1329.2441" y2="1370.1992"/><line style="stroke: #A80036; stroke-width: 1.0;" x1="578" x2="578" y1="1370.1992" y2="1438.8203"/><rect fill="#FEFECE" filter="url(#fpa2mkts8usxi)" height="30.4883" style="stroke: #A80036; stroke-width: 1.5;" width="63" x="118" y="3"/><text fill="#000000" font-family="sans-serif" font-size="14" lengthAdjust="spacingAndGlyphs" textLength="49" x="125" y="23.5352">Client1</text><rect fill="#FEFECE" filter="url(#fpa2mkts8usxi)" height="30.4883" style="stroke: #A80036; stroke-width: 1.5;" width="63" x="118" y="1437.8203"/><text fill="#000000" font-family="sans-serif" font-size="14" lengthAdjust="spacingAndGlyphs" textLength="49" x="125" y="1458.3555">Client1</text><rect fill="#FEFECE" filter="url(#fpa2mkts8usxi)" height="30.4883" style="stroke: #A80036; stroke-width: 1.5;" width="57" x="276" y="3"/><text fill="#000000" font-family="sans-serif" font-size="14" lengthAdjust="spacingAndGlyphs" textLength="43" x="283" y="23.5352">Server</text><rect fill="#FEFECE" filter="url(#fpa2mkts8usxi)" height="30.4883" style="stroke: #A80036; stroke-width: 1.5;" width="57" x="276" y="1437.8203"/><text fill="#000000" font-family="sans-serif" font-size="14" lengthAdjust="spacingAndGlyphs" textLength="43" x="283" y="1458.3555">Server</text><rect fill="#FEFECE" filter="url(#fpa2mkts8usxi)" height="30.4883" style="stroke: #A80036; stroke-width: 1.5;" width="63" x="428" y="3"/><text fill="#000000" font-family="sans-serif" font-size="14" lengthAdjust="spacingAndGlyphs" textLength="49" x="435" y="23.5352">Client2</text><rect fill="#FEFECE" filter="url(#fpa2mkts8usxi)" height="30.4883" style="stroke: #A80036; stroke-width: 1.5;" width="63" x="428" y="1437.8203"/><text fill="#000000" font-family="sans-serif" font-size="14" lengthAdjust="spacingAndGlyphs" textLength="49" x="435" y="1458.3555">Client2</text><rect fill="#FEFECE" filter="url(#fpa2mkts8usxi)" height="30.4883" style="stroke: #A80036; stroke-width: 1.5;" width="63" x="545" y="3"/><text fill="#000000" font-family="sans-serif" font-size="14" lengthAdjust="spacingAndGlyphs" textLength="49" x="552" y="23.5352">Client3</text><rect fill="#FEFECE" filter="url(#fpa2mkts8usxi)" height="30.4883" style="stroke: #A80036; stroke-width: 1.5;" width="63" x="545" y="1437.8203"/><text fill="#000000" font-family="sans-serif" font-size="14" lengthAdjust="spacingAndGlyphs" textLength="49" x="552" y="1458.3555">Client3</text><rect fill="#EEEEEE" filter="url(#fpa2mkts8usxi)" height="3" style="stroke: #EEEEEE; stroke-width: 1.0;" width="614" x="3" y="69.1436"/><line style="stroke: #000000; stroke-width: 1.0;" x1="3" x2="617" y1="69.1436" y2="69.1436"/><line style="stroke: #000000; stroke-width: 1.0;" x1="3" x2="617" y1="72.1436" y2="72.1436"/><rect fill="#EEEEEE" filter="url(#fpa2mkts8usxi)" height="23.3105" style="stroke: #000000; stroke-width: 2.0;" width="135" x="242.5" y="58.4883"/><text fill="#000000" font-family="sans-serif" font-size="13" font-weight="bold" lengthAdjust="spacingAndGlyphs" textLength="117" x="248.5" y="75.0566">Peers HandShake</text><polygon fill="#A80036" points="294.5,109.1094,304.5,113.1094,294.5,117.1094,298.5,113.1094" style="stroke: #A80036; stroke-width: 1.0;"/><line style="stroke: #A80036; stroke-width: 1.0;" x1="151.5" x2="300.5" y1="113.1094" y2="113.1094"/><text fill="#000000" font-family="sans-serif" font-size="13" lengthAdjust="spacingAndGlyphs" textLength="96" x="158.5" y="108.3672">get_peers_list()</text><polygon fill="#A80036" points="162.5,138.4199,152.5,142.4199,162.5,146.4199,158.5,142.4199" style="stroke: #A80036; stroke-width: 1.0;"/><line style="stroke: #A80036; stroke-width: 1.0; stroke-dasharray: 2.0,2.0;" x1="156.5" x2="305.5" y1="142.4199" y2="142.4199"/><text fill="#000000" font-family="sans-serif" font-size="13" lengthAdjust="spacingAndGlyphs" textLength="131" x="168.5" y="137.6777">available_peers_list()</text><polygon fill="#A80036" points="317.5,167.7305,307.5,171.7305,317.5,175.7305,313.5,171.7305" style="stroke: #A80036; stroke-width: 1.0;"/><line style="stroke: #A80036; stroke-width: 1.0;" x1="311.5" x2="460.5" y1="171.7305" y2="171.7305"/><text fill="#000000" font-family="sans-serif" font-size="13" lengthAdjust="spacingAndGlyphs" textLength="96" x="323.5" y="166.9883">get_peers_list()</text><polygon fill="#A80036" points="449.5,197.041,459.5,201.041,449.5,205.041,453.5,201.041" style="stroke: #A80036; stroke-width: 1.0;"/><line style="stroke: #A80036; stroke-width: 1.0; stroke-dasharray: 2.0,2.0;" x1="306.5" x2="455.5" y1="201.041" y2="201.041"/><text fill="#000000" font-family="sans-serif" font-size="13" lengthAdjust="spacingAndGlyphs" textLength="131" x="313.5" y="196.2988">available_peers_list()</text><polygon fill="#A80036" points="162.5,226.3516,152.5,230.3516,162.5,234.3516,158.5,230.3516" style="stroke: #A80036; stroke-width: 1.0;"/><line style="stroke: #A80036; stroke-width: 1.0;" x1="156.5" x2="460.5" y1="230.3516" y2="230.3516"/><text fill="#000000" font-family="sans-serif" font-size="13" lengthAdjust="spacingAndGlyphs" textLength="93" x="168.5" y="225.6094">establist_link()</text><polygon fill="#A80036" points="317.5,255.6621,307.5,259.6621,317.5,263.6621,313.5,259.6621" style="stroke: #A80036; stroke-width: 1.0;"/><line style="stroke: #A80036; stroke-width: 1.0;" x1="311.5" x2="577.5" y1="259.6621" y2="259.6621"/><text fill="#000000" font-family="sans-serif" font-size="13" lengthAdjust="spacingAndGlyphs" textLength="96" x="323.5" y="254.9199">get_peers_list()</text><polygon fill="#A80036" points="566.5,284.9727,576.5,288.9727,566.5,292.9727,570.5,288.9727" style="stroke: #A80036; stroke-width: 1.0;"/><line style="stroke: #A80036; stroke-width: 1.0; stroke-dasharray: 2.0,2.0;" x1="306.5" x2="572.5" y1="288.9727" y2="288.9727"/><text fill="#000000" font-family="sans-serif" font-size="13" lengthAdjust="spacingAndGlyphs" textLength="131" x="313.5" y="284.2305">available_peers_list()</text><polygon fill="#A80036" points="162.5,314.2832,152.5,318.2832,162.5,322.2832,158.5,318.2832" style="stroke: #A80036; stroke-width: 1.0;"/><line style="stroke: #A80036; stroke-width: 1.0;" x1="156.5" x2="577.5" y1="318.2832" y2="318.2832"/><text fill="#000000" font-family="sans-serif" font-size="13" lengthAdjust="spacingAndGlyphs" textLength="93" x="168.5" y="313.541">establist_link()</text><polygon fill="#A80036" points="472.5,343.5938,462.5,347.5938,472.5,351.5938,468.5,347.5938" style="stroke: #A80036; stroke-width: 1.0;"/><line style="stroke: #A80036; stroke-width: 1.0;" x1="466.5" x2="577.5" y1="347.5938" y2="347.5938"/><text fill="#000000" font-family="sans-serif" font-size="13" lengthAdjust="spacingAndGlyphs" textLength="93" x="478.5" y="342.8516">establist_link()</text><rect fill="#EEEEEE" filter="url(#fpa2mkts8usxi)" height="3" style="stroke: #EEEEEE; stroke-width: 1.0;" width="614" x="3" y="376.249"/><line style="stroke: #000000; stroke-width: 1.0;" x1="3" x2="617" y1="376.249" y2="376.249"/><line style="stroke: #000000; stroke-width: 1.0;" x1="3" x2="617" y1="379.249" y2="379.249"/><rect fill="#EEEEEE" filter="url(#fpa2mkts8usxi)" height="23.3105" style="stroke: #000000; stroke-width: 2.0;" width="137" x="241.5" y="365.5938"/><text fill="#000000" font-family="sans-serif" font-size="13" font-weight="bold" lengthAdjust="spacingAndGlyphs" textLength="119" x="247.5" y="382.1621">Exchange BitField</text><polygon fill="#A80036" points="162.5,416.2148,152.5,420.2148,162.5,424.2148,158.5,420.2148" style="stroke: #A80036; stroke-width: 1.0;"/><line style="stroke: #A80036; stroke-width: 1.0;" x1="156.5" x2="460.5" y1="420.2148" y2="420.2148"/><text fill="#000000" font-family="sans-serif" font-size="13" lengthAdjust="spacingAndGlyphs" textLength="44" x="168.5" y="415.4727">Bitfield</text><polygon fill="#A80036" points="449.5,445.5254,459.5,449.5254,449.5,453.5254,453.5,449.5254" style="stroke: #A80036; stroke-width: 1.0;"/><line style="stroke: #A80036; stroke-width: 1.0;" x1="151.5" x2="455.5" y1="449.5254" y2="449.5254"/><text fill="#000000" font-family="sans-serif" font-size="13" lengthAdjust="spacingAndGlyphs" textLength="44" x="158.5" y="444.7832">Bitfield</text><polygon fill="#A80036" points="162.5,474.8359,152.5,478.8359,162.5,482.8359,158.5,478.8359" style="stroke: #A80036; stroke-width: 1.0;"/><line style="stroke: #A80036; stroke-width: 1.0;" x1="156.5" x2="577.5" y1="478.8359" y2="478.8359"/><text fill="#000000" font-family="sans-serif" font-size="13" lengthAdjust="spacingAndGlyphs" textLength="44" x="168.5" y="474.0938">Bitfield</text><polygon fill="#A80036" points="566.5,504.1465,576.5,508.1465,566.5,512.1465,570.5,508.1465" style="stroke: #A80036; stroke-width: 1.0;"/><line style="stroke: #A80036; stroke-width: 1.0;" x1="151.5" x2="572.5" y1="508.1465" y2="508.1465"/><text fill="#000000" font-family="sans-serif" font-size="13" lengthAdjust="spacingAndGlyphs" textLength="44" x="158.5" y="503.4043">Bitfield</text><polygon fill="#A80036" points="472.5,533.457,462.5,537.457,472.5,541.457,468.5,537.457" style="stroke: #A80036; stroke-width: 1.0;"/><line style="stroke: #A80036; stroke-width: 1.0;" x1="466.5" x2="577.5" y1="537.457" y2="537.457"/><text fill="#000000" font-family="sans-serif" font-size="13" lengthAdjust="spacingAndGlyphs" textLength="44" x="478.5" y="532.7148">Bitfield</text><polygon fill="#A80036" points="566.5,562.7676,576.5,566.7676,566.5,570.7676,570.5,566.7676" style="stroke: #A80036; stroke-width: 1.0;"/><line style="stroke: #A80036; stroke-width: 1.0;" x1="461.5" x2="572.5" y1="566.7676" y2="566.7676"/><text fill="#000000" font-family="sans-serif" font-size="13" lengthAdjust="spacingAndGlyphs" textLength="44" x="468.5" y="562.0254">Bitfield</text><rect fill="#EEEEEE" filter="url(#fpa2mkts8usxi)" height="3" style="stroke: #EEEEEE; stroke-width: 1.0;" width="614" x="3" y="595.4229"/><line style="stroke: #000000; stroke-width: 1.0;" x1="3" x2="617" y1="595.4229" y2="595.4229"/><line style="stroke: #000000; stroke-width: 1.0;" x1="3" x2="617" y1="598.4229" y2="598.4229"/><rect fill="#EEEEEE" filter="url(#fpa2mkts8usxi)" height="23.3105" style="stroke: #000000; stroke-width: 2.0;" width="135" x="242.5" y="584.7676"/><text fill="#000000" font-family="sans-serif" font-size="13" font-weight="bold" lengthAdjust="spacingAndGlyphs" textLength="117" x="248.5" y="601.3359">Peer Connections</text><polygon fill="#A80036" points="449.5,640.3887,459.5,644.3887,449.5,648.3887,453.5,644.3887" style="stroke: #A80036; stroke-width: 1.0;"/><line style="stroke: #A80036; stroke-width: 1.0;" x1="151.5" x2="455.5" y1="644.3887" y2="644.3887"/><text fill="#000000" font-family="sans-serif" font-size="13" lengthAdjust="spacingAndGlyphs" textLength="80" x="158.5" y="639.6465">Uninterested</text><path d="M8,623.0781 L8,648.0781 L143,648.0781 L143,633.0781 L133,623.0781 L8,623.0781 " fill="#FBFB77" filter="url(#fpa2mkts8usxi)" style="stroke: #A80036; stroke-width: 1.0;"/><path d="M133,623.0781 L133,633.0781 L143,633.0781 L133,623.0781 " fill="#FBFB77" style="stroke: #A80036; stroke-width: 1.0;"/><text fill="#000000" font-family="sans-serif" font-size="13" lengthAdjust="spacingAndGlyphs" textLength="114" x="14" y="640.6465">Peer Connection 1</text><polygon fill="#A80036" points="162.5,674.6992,152.5,678.6992,162.5,682.6992,158.5,678.6992" style="stroke: #A80036; stroke-width: 1.0;"/><line style="stroke: #A80036; stroke-width: 1.0;" x1="156.5" x2="460.5" y1="678.6992" y2="678.6992"/><text fill="#000000" font-family="sans-serif" font-size="13" lengthAdjust="spacingAndGlyphs" textLength="80" x="168.5" y="673.957">Uninterested</text><polygon fill="#A80036" points="449.5,704.0098,459.5,708.0098,449.5,712.0098,453.5,708.0098" style="stroke: #A80036; stroke-width: 1.0;"/><line style="stroke: #A80036; stroke-width: 1.0; stroke-dasharray: 2.0,2.0;" x1="151.5" x2="455.5" y1="708.0098" y2="708.0098"/><text fill="#000000" font-family="sans-serif" font-size="13" lengthAdjust="spacingAndGlyphs" textLength="40" x="158.5" y="703.2676">Chock</text><polygon fill="#A80036" points="162.5,733.3203,152.5,737.3203,162.5,741.3203,158.5,737.3203" style="stroke: #A80036; stroke-width: 1.0;"/><line style="stroke: #A80036; stroke-width: 1.0; stroke-dasharray: 2.0,2.0;" x1="156.5" x2="460.5" y1="737.3203" y2="737.3203"/><text fill="#000000" font-family="sans-serif" font-size="13" lengthAdjust="spacingAndGlyphs" textLength="40" x="168.5" y="732.5781">Chock</text><rect fill="#EEEEEE" filter="url(#fpa2mkts8usxi)" height="3" style="stroke: #EEEEEE; stroke-width: 1.0;" width="614" x="3" y="765.9756"/><line style="stroke: #000000; stroke-width: 1.0;" x1="3" x2="617" y1="765.9756" y2="765.9756"/><line style="stroke: #000000; stroke-width: 1.0;" x1="3" x2="617" y1="768.9756" y2="768.9756"/><rect fill="#EEEEEE" filter="url(#fpa2mkts8usxi)" height="23.3105" style="stroke: #000000; stroke-width: 2.0;" width="128" x="246" y="755.3203"/><text fill="#000000" font-family="sans-serif" font-size="13" font-weight="bold" lengthAdjust="spacingAndGlyphs" textLength="114" x="252" y="771.8887">... Concurrently ...</text><polygon fill="#A80036" points="566.5,810.9414,576.5,814.9414,566.5,818.9414,570.5,814.9414" style="stroke: #A80036; stroke-width: 1.0;"/><line style="stroke: #A80036; stroke-width: 1.0;" x1="151.5" x2="572.5" y1="814.9414" y2="814.9414"/><text fill="#000000" font-family="sans-serif" font-size="13" lengthAdjust="spacingAndGlyphs" textLength="80" x="158.5" y="810.1992">Uninterested</text><path d="M8,793.6309 L8,818.6309 L143,818.6309 L143,803.6309 L133,793.6309 L8,793.6309 " fill="#FBFB77" filter="url(#fpa2mkts8usxi)" style="stroke: #A80036; stroke-width: 1.0;"/><path d="M133,793.6309 L133,803.6309 L143,803.6309 L133,793.6309 " fill="#FBFB77" style="stroke: #A80036; stroke-width: 1.0;"/><text fill="#000000" font-family="sans-serif" font-size="13" lengthAdjust="spacingAndGlyphs" textLength="114" x="14" y="811.1992">Peer Connection 2</text><polygon fill="#A80036" points="162.5,845.252,152.5,849.252,162.5,853.252,158.5,849.252" style="stroke: #A80036; stroke-width: 1.0;"/><line style="stroke: #A80036; stroke-width: 1.0;" x1="156.5" x2="577.5" y1="849.252" y2="849.252"/><text fill="#000000" font-family="sans-serif" font-size="13" lengthAdjust="spacingAndGlyphs" textLength="63" x="168.5" y="844.5098">Interested</text><polygon fill="#A80036" points="566.5,874.5625,576.5,878.5625,566.5,882.5625,570.5,878.5625" style="stroke: #A80036; stroke-width: 1.0;"/><line style="stroke: #A80036; stroke-width: 1.0; stroke-dasharray: 2.0,2.0;" x1="151.5" x2="572.5" y1="878.5625" y2="878.5625"/><text fill="#000000" font-family="sans-serif" font-size="13" lengthAdjust="spacingAndGlyphs" textLength="57" x="158.5" y="873.8203">UnChock</text><line style="stroke: #A80036; stroke-width: 1.0;" x1="151.5" x2="193.5" y1="907.873" y2="907.873"/><line style="stroke: #A80036; stroke-width: 1.0;" x1="193.5" x2="193.5" y1="907.873" y2="920.873"/><line style="stroke: #A80036; stroke-width: 1.0;" x1="152.5" x2="193.5" y1="920.873" y2="920.873"/><polygon fill="#A80036" points="162.5,916.873,152.5,920.873,162.5,924.873,158.5,920.873" style="stroke: #A80036; stroke-width: 1.0;"/><text fill="#000000" font-family="sans-serif" font-size="13" lengthAdjust="spacingAndGlyphs" textLength="101" x="158.5" y="903.1309">Waiting Request</text><polygon fill="#A80036" points="162.5,946.1836,152.5,950.1836,162.5,954.1836,158.5,950.1836" style="stroke: #A80036; stroke-width: 1.0;"/><line style="stroke: #A80036; stroke-width: 1.0;" x1="156.5" x2="577.5" y1="950.1836" y2="950.1836"/><text fill="#000000" font-family="sans-serif" font-size="13" lengthAdjust="spacingAndGlyphs" textLength="86" x="168.5" y="945.4414">Request Piece</text><polygon fill="#A80036" points="566.5,975.4941,576.5,979.4941,566.5,983.4941,570.5,979.4941" style="stroke: #A80036; stroke-width: 1.0;"/><line style="stroke: #A80036; stroke-width: 1.0; stroke-dasharray: 2.0,2.0;" x1="151.5" x2="572.5" y1="979.4941" y2="979.4941"/><text fill="#000000" font-family="sans-serif" font-size="13" lengthAdjust="spacingAndGlyphs" textLength="66" x="158.5" y="974.752">Send Piece</text><text fill="#000000" font-family="sans-serif" font-size="11" lengthAdjust="spacingAndGlyphs" textLength="143" x="293.5" y="1012.1289">Repeatly Request and Send</text><polygon fill="#A80036" points="162.5,1045.7598,152.5,1049.7598,162.5,1053.7598,158.5,1049.7598" style="stroke: #A80036; stroke-width: 1.0;"/><line style="stroke: #A80036; stroke-width: 1.0;" x1="156.5" x2="577.5" y1="1049.7598" y2="1049.7598"/><text fill="#000000" font-family="sans-serif" font-size="13" lengthAdjust="spacingAndGlyphs" textLength="80" x="168.5" y="1045.0176">UnInterested</text><polygon fill="#A80036" points="566.5,1075.0703,576.5,1079.0703,566.5,1083.0703,570.5,1079.0703" style="stroke: #A80036; stroke-width: 1.0;"/><line style="stroke: #A80036; stroke-width: 1.0; stroke-dasharray: 2.0,2.0;" x1="151.5" x2="572.5" y1="1079.0703" y2="1079.0703"/><text fill="#000000" font-family="sans-serif" font-size="13" lengthAdjust="spacingAndGlyphs" textLength="40" x="158.5" y="1074.3281">Chock</text><rect fill="#EEEEEE" filter="url(#fpa2mkts8usxi)" height="3" style="stroke: #EEEEEE; stroke-width: 1.0;" width="614" x="3" y="1107.7256"/><line style="stroke: #000000; stroke-width: 1.0;" x1="3" x2="617" y1="1107.7256" y2="1107.7256"/><line style="stroke: #000000; stroke-width: 1.0;" x1="3" x2="617" y1="1110.7256" y2="1110.7256"/><rect fill="#EEEEEE" filter="url(#fpa2mkts8usxi)" height="23.3105" style="stroke: #000000; stroke-width: 2.0;" width="128" x="246" y="1097.0703"/><text fill="#000000" font-family="sans-serif" font-size="13" font-weight="bold" lengthAdjust="spacingAndGlyphs" textLength="114" x="252" y="1113.6387">... Concurrently ...</text><polygon fill="#A80036" points="566.5,1152.6914,576.5,1156.6914,566.5,1160.6914,570.5,1156.6914" style="stroke: #A80036; stroke-width: 1.0;"/><line style="stroke: #A80036; stroke-width: 1.0;" x1="461.5" x2="572.5" y1="1156.6914" y2="1156.6914"/><text fill="#000000" font-family="sans-serif" font-size="13" lengthAdjust="spacingAndGlyphs" textLength="80" x="468.5" y="1151.9492">Uninterested</text><path d="M317,1135.3809 L317,1160.3809 L452,1160.3809 L452,1145.3809 L442,1135.3809 L317,1135.3809 " fill="#FBFB77" filter="url(#fpa2mkts8usxi)" style="stroke: #A80036; stroke-width: 1.0;"/><path d="M442,1135.3809 L442,1145.3809 L452,1145.3809 L442,1135.3809 " fill="#FBFB77" style="stroke: #A80036; stroke-width: 1.0;"/><text fill="#000000" font-family="sans-serif" font-size="13" lengthAdjust="spacingAndGlyphs" textLength="114" x="323" y="1152.9492">Peer Connection 3</text><polygon fill="#A80036" points="472.5,1187.002,462.5,1191.002,472.5,1195.002,468.5,1191.002" style="stroke: #A80036; stroke-width: 1.0;"/><line style="stroke: #A80036; stroke-width: 1.0;" x1="466.5" x2="577.5" y1="1191.002" y2="1191.002"/><text fill="#000000" font-family="sans-serif" font-size="13" lengthAdjust="spacingAndGlyphs" textLength="63" x="478.5" y="1186.2598">Interested</text><polygon fill="#A80036" points="566.5,1216.3125,576.5,1220.3125,566.5,1224.3125,570.5,1220.3125" style="stroke: #A80036; stroke-width: 1.0;"/><line style="stroke: #A80036; stroke-width: 1.0; stroke-dasharray: 2.0,2.0;" x1="461.5" x2="572.5" y1="1220.3125" y2="1220.3125"/><text fill="#000000" font-family="sans-serif" font-size="13" lengthAdjust="spacingAndGlyphs" textLength="57" x="468.5" y="1215.5703">UnChock</text><line style="stroke: #A80036; stroke-width: 1.0;" x1="461.5" x2="503.5" y1="1249.623" y2="1249.623"/><line style="stroke: #A80036; stroke-width: 1.0;" x1="503.5" x2="503.5" y1="1249.623" y2="1262.623"/><line style="stroke: #A80036; stroke-width: 1.0;" x1="462.5" x2="503.5" y1="1262.623" y2="1262.623"/><polygon fill="#A80036" points="472.5,1258.623,462.5,1262.623,472.5,1266.623,468.5,1262.623" style="stroke: #A80036; stroke-width: 1.0;"/><text fill="#000000" font-family="sans-serif" font-size="13" lengthAdjust="spacingAndGlyphs" textLength="101" x="468.5" y="1244.8809">Waiting Request</text><polygon fill="#A80036" points="472.5,1287.9336,462.5,1291.9336,472.5,1295.9336,468.5,1291.9336" style="stroke: #A80036; stroke-width: 1.0;"/><line style="stroke: #A80036; stroke-width: 1.0;" x1="466.5" x2="577.5" y1="1291.9336" y2="1291.9336"/><text fill="#000000" font-family="sans-serif" font-size="13" lengthAdjust="spacingAndGlyphs" textLength="86" x="478.5" y="1287.1914">Request Piece</text><polygon fill="#A80036" points="566.5,1317.2441,576.5,1321.2441,566.5,1325.2441,570.5,1321.2441" style="stroke: #A80036; stroke-width: 1.0;"/><line style="stroke: #A80036; stroke-width: 1.0; stroke-dasharray: 2.0,2.0;" x1="461.5" x2="572.5" y1="1321.2441" y2="1321.2441"/><text fill="#000000" font-family="sans-serif" font-size="13" lengthAdjust="spacingAndGlyphs" textLength="66" x="468.5" y="1316.502">Send Piece</text><text fill="#000000" font-family="sans-serif" font-size="11" lengthAdjust="spacingAndGlyphs" textLength="143" x="293.5" y="1353.8789">Repeatly Request and Send</text><polygon fill="#A80036" points="472.5,1387.5098,462.5,1391.5098,472.5,1395.5098,468.5,1391.5098" style="stroke: #A80036; stroke-width: 1.0;"/><line style="stroke: #A80036; stroke-width: 1.0;" x1="466.5" x2="577.5" y1="1391.5098" y2="1391.5098"/><text fill="#000000" font-family="sans-serif" font-size="13" lengthAdjust="spacingAndGlyphs" textLength="80" x="478.5" y="1386.7676">UnInterested</text><polygon fill="#A80036" points="566.5,1416.8203,576.5,1420.8203,566.5,1424.8203,570.5,1420.8203" style="stroke: #A80036; stroke-width: 1.0;"/><line style="stroke: #A80036; stroke-width: 1.0; stroke-dasharray: 2.0,2.0;" x1="461.5" x2="572.5" y1="1420.8203" y2="1420.8203"/><text fill="#000000" font-family="sans-serif" font-size="13" lengthAdjust="spacingAndGlyphs" textLength="40" x="468.5" y="1416.0781">Chock</text><!--
@startuml C3RequestC2C1
== Peers HandShake ==
Client1 -> Server: get_peers_list()
Server - -> Client1: available_peers_list()
Client2 -> Server: get_peers_list()
Server - -> Client2: available_peers_list()
Client2 -> Client1: establist_link()
Client3 -> Server: get_peers_list()
Server - -> Client3: available_peers_list()
Client3 -> Client1: establist_link()
Client3 -> Client2: establist_link()
== Exchange BitField == 
Client2 -> Client1: Bitfield
Client1 -> Client2: Bitfield
Client3 -> Client1: Bitfield
Client1 -> Client3: Bitfield
Client3 -> Client2: Bitfield
Client2 -> Client3: Bitfield
== Peer Connections ==
Client1 -> Client2: Uninterested
note left: Peer Connection 1
Client2 -> Client1: Uninterested
Client1 - -> Client2: Chock
Client2 - -> Client1: Chock
== ... Concurrently ...==
Client1 -> Client3: Uninterested
note left: Peer Connection 2
Client3 -> Client1: Interested
Client1 - -> Client3: UnChock
Client1 -> Client1: Waiting Request
Client3 -> Client1: Request Piece
Client1 - -> Client3: Send Piece
... Repeatly Request and Send ...
Client3 -> Client1: UnInterested
Client1 - -> Client3: Chock
== ... Concurrently ...==
Client2 -> Client3: Uninterested
note left: Peer Connection 3
Client3 -> Client2: Interested
Client2 - -> Client3: UnChock
Client2 -> Client2: Waiting Request
Client3 -> Client2: Request Piece
Client2 - -> Client3: Send Piece
... Repeatly Request and Send ...
Client3 -> Client2: UnInterested
Client2 - -> Client3: Chock
@enduml

PlantUML version 1.2018.03(Fri Apr 06 00:59:15 CST 2018)
(GPL source distribution)
Java Runtime: Java(TM) SE Runtime Environment
JVM: Java HotSpot(TM) 64-Bit Server VM
Java Version: 9.0.4+11
Operating System: Mac OS X
OS Version: 10.12.6
Default Encoding: UTF-8
Language: en
Country: CN
--></g></svg>